<svg xmlns="http://www.w3.org/2000/svg" viewBox="0 0 447.32 312.83"><defs><style>.cls-1{fill:#1d1d1b;}.cls-2{fill:#fff;}.cls-3{font-size:11px;fill:#e30613;font-family:CooperBlack, Cooper Black;}.cls-4{letter-spacing:0em;}.cls-4,.cls-5{fill:#000;}.cls-6{fill:none;}</style></defs><g id="Layer_2" data-name="Layer 2"><g id="Layer_1-2" data-name="Layer 1"><path class="cls-1" d="M70.27,300.83a45.44,45.44,0,0,1-45.36-45.36V102.86A45.41,45.41,0,0,1,70.27,57.5H204.93a285.66,285.66,0,0,0-30-6.76l-.74-.13a392.2,392.2,0,0,0-53.7-5.11H70.27a57.42,57.42,0,0,0-57.36,57.36V255.47a57.42,57.42,0,0,0,57.36,57.36H183.8a205.4,205.4,0,0,1-25.74-12ZM386.49,65.53q-1.42-1.66-3-3.23a58,58,0,0,0-40.56-16.8H232.17a205.91,205.91,0,0,1,25.73,12h85c4.4,0,19.74,1,32.07,13.28.41.41.8.82,1.19,1.24a45,45,0,0,1,12.1,30.84V255.47a45.41,45.41,0,0,1-45.36,45.36H211c6.88,2,14.3,3.76,22.26,5.33l.28.06a379.17,379.17,0,0,0,61.92,6.61h47.45a57.42,57.42,0,0,0,57.36-57.36V102.86A56.94,56.94,0,0,0,386.49,65.53Z"/><path class="cls-1" d="M299.88,128.83q-1.72-3.21-3.7-6.29a106.08,106.08,0,0,0-78-48.76,104.93,104.93,0,0,0-11.55-.63A105.94,105.94,0,0,0,129,251.32l0,0a105.71,105.71,0,0,0,69.76,33.54q3.87.28,7.8.29a106,106,0,0,0,93.28-156.35ZM206.6,271.25a92,92,0,1,1,92.09-92.09A92.07,92.07,0,0,1,206.6,271.25Z"/><path class="cls-1" d="M276.74,134.81a83,83,0,1,0,12.87,44.35A83,83,0,0,0,276.74,134.81ZM206.6,241.17a62,62,0,1,1,62-62A62,62,0,0,1,206.6,241.17Z"/><path class="cls-1" d="M162.29,154.85a51.4,51.4,0,0,0,.46,50.17l4.45-7.68,24.61-42.49Zm40.44,68.33L185.2,192.6l-6.92-12.08L167.8,198.63l-4.37,7.53h0a.83.83,0,0,0,.08.12,51.32,51.32,0,0,0,43.62,24.56Zm47.6-71.7a51.29,51.29,0,0,0-43-23.3h0l4.44,7.65,17,29.29,7.65,13.2,10.44-18,4.37-7.52C250.91,152.37,250.62,151.92,250.33,151.48ZM171,154.85a43.83,43.83,0,0,0-3.83,42.49l24.61-42.49Zm39.3-19.13L206,128.2a51.33,51.33,0,0,0-43,25.49h57.81ZM251.86,154l-4.45,7.67-24.57,42.31h29.65a51.42,51.42,0,0,0-.63-50ZM193.71,205.1l10.43,18.2,4.32,7.53a51.31,51.31,0,0,0,43.38-25.73Z"/><path class="cls-1" d="M171,154.85H154a58.67,58.67,0,0,0,3.25,55.4c.42.69.86,1.36,1.31,2l2.6-4.49,1.6-2.76,4.45-7.68A43.83,43.83,0,0,1,171,154.85ZM206,128.2,201.8,121a58.84,58.84,0,0,0-47.26,32.68h17.3a43.87,43.87,0,0,1,35.48-18.08c1,0,2,0,3,.11Zm1.35-7.45c-1.43,0-2.84,0-4.24.15l4.22,7.28,4.44,7.65a44,44,0,0,1,35.07,24.52l4.37-7.52,1.72-3h0l2.43-4.19A58.72,58.72,0,0,0,207.32,120.75Zm49.28,26.78c-.17-.27-.35-.54-.53-.81l-1,1.8L251.86,154l-4.45,7.67a43.84,43.84,0,0,1-3.63,42.31h17a58.68,58.68,0,0,0-4.17-56.41ZM243,205.1a43.86,43.86,0,0,1-35.66,18.32q-1.6,0-3.18-.12l4.32,7.53,4.14,7.22a58.89,58.89,0,0,0,47.63-33Zm-35.85,25.75-4.4-7.67a44,44,0,0,1-32.92-20.86q-1.09-1.8-2-3.69l-4.37,7.53h0l-.14.26h0l-4,6.89a58.71,58.71,0,0,0,48,25c1.34,0,2.67,0,4-.14Z"/><path class="cls-1" d="M300.47,130.57l-10.85,3.13a41.36,41.36,0,0,0-2.37-5.52C283.65,121,275.3,107.87,258,94.94c-9.45-7.07-22.41-14.65-39.86-21.16-21.9-8.16-50.89-14.63-88.91-16.28-8-.34-16.31-.48-25.07-.37l0-2.64L104,45.84q8.41-.11,16.51.07a382.81,382.81,0,0,1,53.7,4.7l.74.13c37.1,6.17,67.46,18.15,90.69,35.82,17.68,13.45,26.8,27.09,31.19,35.55a58.38,58.38,0,0,1,3,6.72C300.25,129.83,300.43,130.43,300.47,130.57Z"/><path class="cls-1" d="M305.73,312.47c-67.63,0-119.93-13.7-155.52-40.76-28-21.3-34.54-43.09-34.8-44l10.85-3.13c0,.17,6.11,19.7,31.6,38.76,23.81,17.8,69.82,38.82,153.85,37.81l.14,11.29Z"/><rect class="cls-1" x="73.61" y="36.51" width="46.93" height="17.98"/><rect class="cls-1" x="81.43" y="30.22" width="31.29" height="8.72"/><path class="cls-1" d="M169.21,0h80.24a9.89,9.89,0,0,1,9.89,9.89V42.57a0,0,0,0,1,0,0h-100a0,0,0,0,1,0,0V9.89A9.89,9.89,0,0,1,169.21,0Z"/><path class="cls-2" d="M181.13,11.52h56.41A5.5,5.5,0,0,1,243,17V31a0,0,0,0,1,0,0H175.62a0,0,0,0,1,0,0V17A5.5,5.5,0,0,1,181.13,11.52Z"/><text class="cls-3" transform="translate(263.59 68.43)">Imagine<tspan class="cls-4" x="44.89" y="0">S</tspan><tspan class="cls-5" x="51.98" y="0">tudios</tspan></text><path class="cls-6" d="M218.15,73.78a104.93,104.93,0,0,0-11.55-.63A106,106,0,0,0,117,235.68l-80,50.51a45.12,45.12,0,0,1-12-30.72V102.86A45.41,45.41,0,0,1,70.27,57.5h59C167.26,59.15,196.25,65.62,218.15,73.78Z"/><polyline class="cls-6" points="447.32 27.13 386.49 65.53 376.2 72.02 296.86 122.11 296.18 122.54 287.25 128.18 284.41 129.97 276.74 134.81 258.99 146.02 256.6 147.53 255.02 148.52 252.91 149.86 252.9 149.86 250.33 151.48 244.03 155.46 228.72 165.12 228.26 165.42 227.74 165.74 186.19 191.98 185.73 192.26 185.2 192.6 169.81 202.32 163.51 206.29 163.29 206.43 163.28 206.44 163.27 206.44 161.15 207.78 157.24 210.25 154.15 212.2 136.41 223.4 128.73 228.25 127.96 228.73 118.33 234.81 116.95 235.68"/><polyline class="cls-6" points="36.94 286.19 26.65 292.68 0 309.51"/><polygon class="cls-6" points="235.7 179.47 221.49 203.94 193.04 203.94 186.19 191.98 178.96 179.37 178.96 179.36 193.15 154.85 221.42 154.85 227.74 165.74 235.7 179.47"/><path class="cls-6" d="M212.6,238.05c-.43,0-.86.08-1.29.1"/><path class="cls-6" d="M256.07,146.72l-.73-1.05"/></g></g></svg>