<svg xmlns="http://www.w3.org/2000/svg" viewBox="0 0 387.39 312.83"><defs><style>.cls-1,.cls-3{fill:#fff;}.cls-2{font-size:11px;fill:#e30613;font-family:CooperBlack, Cooper Black;}.cls-3{letter-spacing:0em;}</style></defs><g id="Layer_2" data-name="Layer 2"><g id="Layer_1-2" data-name="Layer 1"><path class="cls-1" d="M57.36,300.83A45.44,45.44,0,0,1,12,255.47V102.86A45.41,45.41,0,0,1,57.36,57.5H192a285.66,285.66,0,0,0-30-6.76l-.74-.13a392.2,392.2,0,0,0-53.7-5.11H57.36A57.42,57.42,0,0,0,0,102.86V255.47a57.42,57.42,0,0,0,57.36,57.36H170.89a205.4,205.4,0,0,1-25.74-12ZM373.58,65.53q-1.43-1.66-3-3.23A58,58,0,0,0,330,45.5H219.26A205.91,205.91,0,0,1,245,57.5h85c4.4,0,19.74,1,32.07,13.28.41.41.8.82,1.19,1.24a45,45,0,0,1,12.1,30.84V255.47A45.41,45.41,0,0,1,330,300.83H198.12c6.88,2,14.3,3.76,22.26,5.33l.28.06a379.17,379.17,0,0,0,61.92,6.61H330a57.42,57.42,0,0,0,57.36-57.36V102.86A56.94,56.94,0,0,0,373.58,65.53Z"/><path class="cls-1" d="M287,128.83q-1.73-3.21-3.7-6.29a106.08,106.08,0,0,0-78-48.76,104.93,104.93,0,0,0-11.55-.63A105.94,105.94,0,0,0,116.1,251.32l0,0a105.71,105.71,0,0,0,69.76,33.54q3.87.28,7.8.29A106,106,0,0,0,287,128.83ZM193.69,271.25a92,92,0,1,1,92.09-92.09A92.07,92.07,0,0,1,193.69,271.25Z"/><path class="cls-1" d="M263.83,134.81a83,83,0,1,0,12.87,44.35A83,83,0,0,0,263.83,134.81ZM193.69,241.17a62,62,0,1,1,62-62A62,62,0,0,1,193.69,241.17Z"/><path class="cls-1" d="M149.38,154.85a51.4,51.4,0,0,0,.46,50.17l4.45-7.68,24.61-42.49Zm40.44,68.33L172.29,192.6l-6.92-12.08-10.48,18.11-4.37,7.53h0a.83.83,0,0,0,.08.12,51.32,51.32,0,0,0,43.62,24.56Zm47.6-71.7a51.29,51.29,0,0,0-43-23.3h0l4.44,7.65,17,29.29,7.65,13.2,10.44-18,4.37-7.52C238,152.37,237.71,151.92,237.42,151.48Zm-79.3,3.37a43.83,43.83,0,0,0-3.83,42.49l24.61-42.49Zm39.3-19.13-4.36-7.52a51.33,51.33,0,0,0-43,25.49h57.81ZM239,154l-4.45,7.67-24.57,42.31h29.65a51.42,51.42,0,0,0-.63-50ZM180.8,205.1l10.43,18.2,4.32,7.53a51.31,51.31,0,0,0,43.38-25.73Z"/><path class="cls-1" d="M158.12,154.85h-17a58.67,58.67,0,0,0,3.25,55.4c.42.69.86,1.36,1.31,2l2.6-4.49,1.6-2.76,4.45-7.68a43.83,43.83,0,0,1,3.83-42.49Zm34.94-26.65L188.89,121a58.84,58.84,0,0,0-47.26,32.68h17.3a43.87,43.87,0,0,1,35.48-18.08c1,0,2,0,3,.11Zm1.35-7.45c-1.43,0-2.84,0-4.24.15l4.22,7.28,4.44,7.65a44,44,0,0,1,35.07,24.52l4.37-7.52,1.72-3h0l2.43-4.19A58.72,58.72,0,0,0,194.41,120.75Zm49.28,26.78c-.17-.27-.35-.54-.53-.81l-1,1.8L239,154l-4.45,7.67a43.84,43.84,0,0,1-3.63,42.31h17a58.68,58.68,0,0,0-4.17-56.41ZM230.07,205.1a43.86,43.86,0,0,1-35.66,18.32q-1.6,0-3.18-.12l4.32,7.53,4.14,7.22a58.89,58.89,0,0,0,47.63-33Zm-35.85,25.75-4.4-7.67a44,44,0,0,1-32.92-20.86q-1.1-1.8-2-3.69l-4.37,7.53h0l-.14.26h0l-4,6.89a58.71,58.71,0,0,0,48,25c1.34,0,2.67,0,4-.14Z"/><path class="cls-1" d="M287.56,130.57l-10.85,3.13a41.36,41.36,0,0,0-2.37-5.52c-3.6-7.17-11.95-20.31-29.24-33.24-9.45-7.07-22.41-14.65-39.86-21.16-21.9-8.16-50.89-14.63-88.91-16.28-8-.34-16.31-.48-25.07-.37l0-2.64-.11-8.65q8.41-.11,16.51.07a382.81,382.81,0,0,1,53.7,4.7l.74.13c37.1,6.17,67.46,18.15,90.69,35.82,17.68,13.45,26.8,27.09,31.19,35.55a58.38,58.38,0,0,1,3,6.72C287.34,129.83,287.52,130.43,287.56,130.57Z"/><path class="cls-1" d="M292.82,312.48c-67.63,0-119.93-13.71-155.52-40.76-28-21.3-34.54-43.09-34.8-44l10.85-3.13c.05.17,6.11,19.7,31.6,38.76,23.81,17.81,69.82,38.83,153.85,37.81l.14,11.29C296.89,312.46,294.84,312.48,292.82,312.48Z"/><rect class="cls-1" x="60.7" y="36.51" width="46.93" height="17.98"/><rect class="cls-1" x="68.52" y="30.22" width="31.29" height="8.72"/><path class="cls-1" d="M236.54,0H156.3a9.89,9.89,0,0,0-9.89,9.9V42.57h100V9.9A9.89,9.89,0,0,0,236.54,0Zm-6.41,31.05H162.71V17a5.51,5.51,0,0,1,5.51-5.5h56.41a5.5,5.5,0,0,1,5.5,5.5Z"/><text class="cls-2" transform="translate(250.68 68.43)">Imagine<tspan class="cls-3" x="44.89" y="0">S</tspan><tspan class="cls-1" x="51.98" y="0">tudios</tspan></text></g></g></svg>